<svg width="40" height="39" viewBox="0 0 40 39" fill="none" xmlns="http://www.w3.org/2000/svg">
<path d="M33.6949 4.17813H6.23867C5.57838 4.17813 5.04492 4.71159 5.04492 5.37188V32.8281C5.04492 33.4884 5.57838 34.0219 6.23867 34.0219H33.6949C34.3552 34.0219 34.8887 33.4884 34.8887 32.8281V5.37188C34.8887 4.71159 34.3552 4.17813 33.6949 4.17813ZM32.5012 31.6344H25.6334V22.4649H29.5131L30.095 17.9622H25.6334V15.086C25.6334 13.7804 25.9952 12.8925 27.8642 12.8925H30.248V8.8636C29.8339 8.80764 28.42 8.68454 26.7712 8.68454C23.3317 8.68454 20.9778 10.7848 20.9778 14.6384V17.9585H17.0906V22.4612H20.9815V31.6344H7.43242V6.56563H32.5012V31.6344Z" fill="#2300AE"/>
</svg>
