<svg width="40" height="39" viewBox="0 0 40 39" fill="none" xmlns="http://www.w3.org/2000/svg">
<path d="M20.0184 3.6422C10.7929 3.63847 3.3208 11.1069 3.3208 20.3249C3.3208 27.6142 7.99508 33.8105 14.5047 36.0861C15.3814 36.3062 15.2471 35.6832 15.2471 35.2579V32.3668C10.1849 32.96 9.97969 29.61 9.64021 29.0504C8.95381 27.8791 7.33105 27.5806 7.81602 27.0211C8.96873 26.4279 10.1438 27.1703 11.5054 29.181C12.4903 30.6396 14.4115 30.3934 15.3851 30.1509C15.5978 29.2743 16.0529 28.4909 16.6796 27.8828C11.4346 26.9427 9.24852 23.742 9.24852 19.9369C9.24852 18.0903 9.85658 16.3929 11.0503 15.0239C10.2893 12.7669 11.1212 10.8345 11.2331 10.5473C13.4005 10.3533 15.6537 12.0992 15.8291 12.2372C17.0601 11.9052 18.4665 11.7299 20.0408 11.7299C21.6225 11.7299 23.0326 11.9127 24.2748 12.2484C24.6964 11.9276 26.7854 10.4279 28.7999 10.6107C28.9081 10.898 29.7213 12.7856 29.0051 15.0127C30.2137 16.3855 30.8293 18.0978 30.8293 19.9481C30.8293 23.7606 28.6283 26.9651 23.3683 27.8903C23.8189 28.3333 24.1766 28.8617 24.4206 29.4446C24.6647 30.0275 24.7901 30.6531 24.7896 31.285V35.4818C24.8195 35.8175 24.7896 36.1495 25.3492 36.1495C31.9559 33.9224 36.7122 27.6814 36.7122 20.3286C36.7122 11.1069 29.2364 3.6422 20.0184 3.6422Z" fill="#2300AE"/>
</svg>
