<svg width="57" height="46" viewBox="0 0 57 46" fill="none" xmlns="http://www.w3.org/2000/svg">
<path d="M2.72603 22.954L19.3722 43.7672C19.6408 44.0333 19.9087 44.3001 20.4452 44.3001H36.2869C36.5548 44.3001 36.8227 44.0333 36.5548 43.7672L2.99251 1.87537C2.72389 1.60857 2.45599 1.60857 2.45599 2.14146V22.155C2.45813 22.4218 2.45813 22.6879 2.72603 22.954ZM54.5419 22.155V2.14146C54.5419 1.60857 54.0054 1.60857 53.7375 1.87537L31.7269 29.348V29.6311C31.7269 29.8972 31.7269 29.8972 31.9948 29.8972H48.0881C48.3731 29.8972 48.9096 29.6311 49.1775 29.348L54.274 22.954C54.274 22.6879 54.5419 22.4218 54.5419 22.155Z" fill="#FF4655"/>
</svg>
