<svg width="39" height="39" viewBox="0 0 39 39" fill="none" xmlns="http://www.w3.org/2000/svg">
<path d="M19.9 11.4488C15.6659 11.4488 12.2488 14.8659 12.2488 19.1C12.2488 23.3341 15.6659 26.7512 19.9 26.7512C24.1341 26.7512 27.5512 23.3341 27.5512 19.1C27.5512 14.8659 24.1341 11.4488 19.9 11.4488ZM19.9 24.0727C17.1618 24.0727 14.9273 21.8382 14.9273 19.1C14.9273 16.3618 17.1618 14.1273 19.9 14.1273C22.6382 14.1273 24.8727 16.3618 24.8727 19.1C24.8727 21.8382 22.6382 24.0727 19.9 24.0727ZM27.8646 9.35228C26.876 9.35228 26.0777 10.1506 26.0777 11.1392C26.0777 12.1277 26.876 12.9261 27.8646 12.9261C28.8531 12.9261 29.6515 12.1315 29.6515 11.1392C29.6518 10.9044 29.6057 10.6719 29.516 10.455C29.4263 10.2381 29.2947 10.041 29.1287 9.87499C28.9628 9.709 28.7657 9.57739 28.5487 9.4877C28.3318 9.398 28.0993 9.35198 27.8646 9.35228ZM34.8144 19.1C34.8144 17.0408 34.8331 15.0002 34.7174 12.9447C34.6018 10.5572 34.0571 8.43831 32.3113 6.69246C30.5617 4.94287 28.4465 4.40195 26.059 4.2863C23.9998 4.17066 21.9592 4.18931 19.9037 4.18931C17.8445 4.18931 15.804 4.17066 13.7485 4.2863C11.361 4.40195 9.24206 4.9466 7.4962 6.69246C5.74661 8.44205 5.20569 10.5572 5.09005 12.9447C4.9744 15.0039 4.99305 17.0445 4.99305 19.1C4.99305 21.1555 4.9744 23.1998 5.09005 25.2553C5.20569 27.6428 5.75034 29.7617 7.4962 31.5075C9.24579 33.2571 11.361 33.798 13.7485 33.9137C15.8077 34.0293 17.8482 34.0107 19.9037 34.0107C21.963 34.0107 24.0035 34.0293 26.059 33.9137C28.4465 33.798 30.5654 33.2534 32.3113 31.5075C34.0609 29.7579 34.6018 27.6428 34.7174 25.2553C34.8368 23.1998 34.8144 21.1592 34.8144 19.1ZM31.5316 27.8964C31.2593 28.5754 30.931 29.0827 30.405 29.605C29.879 30.131 29.3754 30.4593 28.6965 30.7316C26.7342 31.5113 22.0749 31.3359 19.9 31.3359C17.7251 31.3359 13.0621 31.5113 11.0998 30.7353C10.4209 30.463 9.91354 30.1347 9.39128 29.6087C8.86528 29.0827 8.537 28.5791 8.26467 27.9002C7.48874 25.9342 7.66407 21.2749 7.66407 19.1C7.66407 16.9251 7.48874 12.262 8.26467 10.2998C8.537 9.62087 8.86528 9.11353 9.39128 8.59126C9.91727 8.069 10.4209 7.73699 11.0998 7.46466C13.0621 6.68873 17.7251 6.86406 19.9 6.86406C22.0749 6.86406 26.738 6.68873 28.7002 7.46466C29.3791 7.73699 29.8865 8.06527 30.4087 8.59126C30.9347 9.11726 31.263 9.62087 31.5353 10.2998C32.3113 12.262 32.1359 16.9251 32.1359 19.1C32.1359 21.2749 32.3113 25.9342 31.5316 27.8964Z" fill="#2300AE"/>
</svg>
