<svg width="39" height="39" viewBox="0 0 39 39" fill="none" xmlns="http://www.w3.org/2000/svg">
<path d="M31.6233 4.17813H6.57691C5.2526 4.17813 4.17822 5.25251 4.17822 6.57682V31.6232C4.17822 32.9475 5.2526 34.0219 6.57691 34.0219H31.6233C32.9476 34.0219 34.022 32.9475 34.022 31.6232V6.57682C34.022 5.25251 32.9476 4.17813 31.6233 4.17813ZM31.6233 31.6344C14.9182 31.6307 6.56572 31.6269 6.56572 31.6232C6.56945 14.9182 6.57318 6.56563 6.57691 6.56563C23.282 6.56936 31.6345 6.57309 31.6345 6.57682C31.6307 23.2819 31.627 31.6344 31.6233 31.6344ZM8.60256 15.3658H13.0306V29.6087H8.60256V15.3658ZM10.8185 13.4185C12.2323 13.4185 13.385 12.2695 13.385 10.8519C13.385 10.5149 13.3186 10.1811 13.1897 9.86976C13.0607 9.55837 12.8716 9.27543 12.6333 9.03711C12.395 8.79878 12.112 8.60973 11.8006 8.48074C11.4892 8.35176 11.1555 8.28538 10.8185 8.28538C10.4814 8.28538 10.1477 8.35176 9.83628 8.48074C9.52489 8.60973 9.24195 8.79878 9.00362 9.03711C8.7653 9.27543 8.57624 9.55837 8.44726 9.86976C8.31828 10.1811 8.25189 10.5149 8.25189 10.8519C8.24816 12.2695 9.39715 13.4185 10.8185 13.4185ZM20.2304 22.5619C20.2304 20.7041 20.5848 18.906 22.8865 18.906C25.1546 18.906 25.1882 21.0287 25.1882 22.6813V29.6087H29.6126V21.7971C29.6126 17.9622 28.7844 15.0114 24.3041 15.0114C22.1516 15.0114 20.7079 16.194 20.1148 17.3131H20.0551V15.3658H15.8061V29.6087H20.2304V22.5619Z" fill="#2300AE"/>
</svg>
